<svg width="12" height="16" viewBox="0 0 10 16" fill="none" xmlns="http://www.w3.org/2000/svg">
    <path fill-rule="evenodd" clip-rule="evenodd"
          d="M2.707 15.707L9.707 8.70699C9.89447 8.51946 9.99978 8.26515 9.99978 7.99999C9.99978 7.73483 9.89447 7.48052 9.707 7.29299L2.707 0.29299C2.61475 0.197479 2.50441 0.121297 2.3824 0.0688882C2.2604 0.0164792 2.12918 -0.011107 1.9964 -0.0122608C1.86362 -0.0134146 1.73194 0.0118871 1.60904 0.0621679C1.48615 0.112449 1.37449 0.186702 1.2806 0.280595C1.18671 0.374487 1.11246 0.486139 1.06218 0.609036C1.01189 0.731932 0.986593 0.863612 0.987747 0.996391C0.988901 1.12917 1.01649 1.26039 1.0689 1.38239C1.1213 1.5044 1.19749 1.61474 1.293 1.70699L7.586 7.99999L1.293 14.293C1.19749 14.3852 1.1213 14.4956 1.0689 14.6176C1.01649 14.7396 0.988901 14.8708 0.987747 15.0036C0.986593 15.1364 1.01189 15.268 1.06218 15.3909C1.11246 15.5138 1.18671 15.6255 1.2806 15.7194C1.37449 15.8133 1.48615 15.8875 1.60904 15.9378C1.73194 15.9881 1.86362 16.0134 1.9964 16.0122C2.12918 16.0111 2.2604 15.9835 2.3824 15.9311C2.50441 15.8787 2.61475 15.8025 2.707 15.707Z" fill="#FFF" />
</svg>